<svg version="1.1" xmlns="http://www.w3.org/2000/svg" viewBox="0 0 608.0000305175781 308.0000305175781" width="1216.0000610351562" height="616.0000610351562">
  <!-- svg-source:excalidraw -->
  
  <rect x="0" y="0" width="608.0000305175781" height="308.0000305175781" fill="#171717"></rect><g transform="translate(10 10) rotate(0 294.00001525878906 144.00001525878906)"><path d="M588.0000305175781 144.00001525878906 C588.0000305175781 147.0139605155652, 587.8062683010243 150.0338531048353, 587.4198886453803 153.04185102911748 C587.0335089897363 156.04984895339967, 586.4529870310217 159.0578234062776, 585.6817525837146 162.04800280448225 C584.9105181364074 165.0381822026869, 583.9455274904878 168.02236741821994, 582.7924819615375 170.98292741834535 C581.6394364325872 173.94348741847077, 580.2937854766798 176.89210618095782, 578.7634794100127 179.8113628052347 C577.2331733433456 182.73061942951156, 575.512172747004 185.63203488779283, 573.610645561535 188.49846716400663 C571.7091183760659 191.36489944022043, 569.6195601423934 194.2076610330127, 567.3543162971982 197.00995646251758 C565.089072452003 199.81225189202246, 562.6392031127198 202.58514053805322, 560.019182490364 205.3122397410359 C557.3991618680082 208.0393389440186, 554.5986499381572 210.7314113186143, 551.6341925630637 213.37255168041375 C548.6697351879702 216.0136920422132, 545.5296330087067 218.61432376560217, 542.2324382398033 221.1590819118326 C538.9352434708999 223.70384005806304, 535.4679435909488 226.2027676249487, 531.8510239496433 228.64110055779636 C528.2341043083377 231.07943349064402, 524.453290576267 233.4667947755713, 520.5309203919702 235.78907950891858 C516.6085502076734 238.11136424226586, 512.5291437679937 240.37773742092472, 508.3168028438626 242.5748089578801 C504.1044619197315 244.77188049483547, 499.74256232595684 246.9083212276972, 495.25687484718344 248.9715087306508 C490.77118736841004 251.03469623360442, 486.1440090454748 253.03277296514335, 481.4026779712221 254.95393397560173 C476.6613468969694 256.8750949860601, 471.78715120375745 258.72692222025125, 466.80888840166745 260.4984747934011 C461.83062559957744 262.27002736655095, 456.72864875968156 263.9682967873204, 451.53310115868214 265.5832494145009 C446.3375535576827 267.19820204168144, 441.0279307428186 268.7362113554908, 435.63560279567105 270.1881905564842 C430.24327484852347 271.64016975747757, 424.74696071420544 273.011849144215, 419.1791334757968 274.295124620461 C413.61130623738813 275.57840009670707, 407.9499922244772 276.77833616449374, 402.22863936521924 277.8878434139606 C396.50728650596125 278.9973506634274, 390.70331523445816 280.0208078128024, 384.85101632024873 280.952168117262 C378.9987174060393 281.88352842172156, 373.0749944989703 282.7264675348894, 367.11484587996284 283.4760052407181 C361.1546972609554 284.2255429465468, 355.13460094634314 284.8846373279301, 349.090124606204 285.4493943522342 C343.0456482660648 286.01415137653834, 336.9529371137427 286.4867998817253, 330.84798783912777 286.8645473865428 C324.74303856451286 287.24229489136036, 318.60175772190416 287.52663219263366, 312.46042895851434 287.71587938113953 C306.3191001951245 287.9051265696454, 300.1534864920307 288.0000305175781, 294.0000152587889 288.0000305175781 C287.8465440255471 288.0000305175781, 281.68093032245326 287.9051265696454, 275.53960155906344 287.71587938113953 C269.3982727956736 287.52663219263366, 263.2569919530649 287.2422948913604, 257.15204267845 286.8645473865428 C251.04709340383508 286.48679988172523, 244.95438225151298 286.0141513765383, 238.9099059113738 285.44939435223415 C232.86542957123464 284.88463732793, 226.84533325662238 284.22554294654674, 220.88518463761494 283.47600524071805 C214.9250360186075 282.72646753488937, 209.0013131115385 281.88352842172145, 203.1490141973291 280.95216811726186 C197.2967152831197 280.0208078128023, 191.49274401161657 278.9973506634273, 185.77139115235855 277.88784341396047 C180.05003829310053 276.7783361644936, 174.38872428018968 275.57840009670696, 168.82089704178105 274.2951246204609 C163.25306980337243 273.01184914421486, 157.75675566905434 271.64016975747745, 152.3644277219068 270.18819055648413 C146.97209977475924 268.7362113554908, 141.66247695989514 267.1982020416814, 136.46692935889575 265.58324941450087 C131.27138175789636 263.96829678732036, 126.16940491800048 262.27002736655095, 121.19114211591048 260.49847479340104 C116.21287931382048 258.72692222025114, 111.33868362060846 256.87509498606, 106.59735254635578 254.95393397560161 C101.8560214721031 253.03277296514324, 97.22884314916782 251.0346962336043, 92.7431556703944 248.9715087306507 C88.25746819162099 246.9083212276971, 83.89556859784638 244.77188049483533, 79.68322767371527 242.57480895787995 C75.47088674958415 240.37773742092457, 71.39148030990448 238.1113642422657, 67.4691101256077 235.7890795089184 C63.54673994131091 233.46679477557112, 59.765926209240064 231.07943349064382, 56.14900656793455 228.64110055779616 C52.532086926629034 226.2027676249485, 49.06478704667801 223.70384005806284, 45.76759227777461 221.1590819118324 C42.47039750887121 218.61432376560197, 39.330295329607566 216.01369204221297, 36.36583795451412 213.37255168041352 C33.401380579420675 210.73141131861408, 30.60086864956968 208.03933894401837, 27.980848027213938 205.31223974103568 C25.360827404858195 202.585140538053, 22.910958065574828 199.8122518920222, 20.64571422037966 197.00995646251732 C18.38047037518449 194.20766103301244, 16.290912141512006 191.36489944022017, 14.389384956042932 188.49846716400634 C12.487857770573859 185.6320348877925, 10.766857174232285 182.73061942951125, 9.23655110756522 179.81136280523438 C7.706245040898153 176.8921061809575, 6.3605940849908125 173.94348741847045, 5.2075485560405355 170.98292741834504 C4.0545030270902584 168.02236741821963, 3.089512381170664 165.03818220268656, 2.3182779338635555 162.0480028044819 C1.547043486556447 159.05782340627727, 0.9665215278418107 156.04984895339933, 0.5801418721978848 153.04185102911714 C0.19376221655395892 150.03385310483495, -9.473903143468002e-15 147.01396051556483, 0 144.0000152587887 C9.473903143468002e-15 140.98607000201255, 0.19376221655398734 137.96617741274247, 0.5801418721979417 134.95817948846027 C0.9665215278418959 131.95018156417808, 1.5470434865565892 128.94220711130015, 2.318277933863726 125.95202771309549 C3.089512381170863 122.96184831489084, 4.054503027090457 119.97766309935778, 5.207548556040763 117.01710309923237 C6.360594084991068 114.05654309910696, 7.706245040898447 111.10792433661992, 9.23655110756556 108.18866771234303 C10.766857174232674 105.26941108806615, 12.487857770574331 102.36799562978491, 14.389384956043443 99.5015633535711 C16.290912141512553 96.63513107735729, 18.38047037518503 93.792369484565, 20.645714220380228 90.99007405506012 C22.910958065575425 88.18777862555524, 25.36082740485885 85.41488997952447, 27.98084802721462 82.68779077654179 C30.60086864957039 79.9606915735591, 33.40138057942139 77.2686191989634, 36.36583795451486 74.62747883716396 C39.330295329608326 71.98633847536452, 42.470397508872004 69.38570675197555, 45.767592277775435 66.84094860574511 C49.064787046678866 64.29619045951468, 52.532086926629894 61.79726289262901, 56.14900656793543 59.35892995978135 C59.765926209240966 56.92059702693369, 63.546739941311834 54.53323574200644, 67.46911012560864 52.21095100865915 C71.39148030990545 49.88866627531186, 75.47088674958512 47.62229309665299, 79.68322767371626 45.42522155969762 C83.8955685978474 43.22815002274225, 88.25746819162207 41.09170928988053, 92.74315567039551 39.02852178692693 C97.22884314916895 36.965334283973334, 101.85602147210423 34.967257552434404, 106.59735254635692 33.04609654197603 C111.3386836206096 31.124935531517654, 116.21287931382162 29.27310829732653, 121.19114211591159 27.501555724176683 C126.16940491800156 25.730003151026835, 131.2713817578974 24.031733730257436, 136.46692935889675 22.416781103076943 C141.6624769598961 20.80182847589645, 146.97209977476024 19.26381916208705, 152.36442772190776 17.811839961093725 C157.75675566905528 16.3598607601004, 163.2530698033733 14.988181373363027, 168.8208970417819 13.704905897116987 C174.3887242801905 12.421630420870947, 180.0500382931014 11.221694353084303, 185.7713911523594 10.112187103617487 C191.4927440116174 9.00267985415067, 197.29671528312048 7.979222704775675, 203.14901419732985 7.047862400316092 C209.00131311153922 6.116502095856508, 214.92503601860815 5.273562982688683, 220.88518463761557 4.524025276859987 C226.84533325662298 3.7744875710312917, 232.86542957123518 3.1153931896480316, 238.90990591137432 2.550636165343917 C244.95438225151347 1.9858791410398027, 251.04709340383553 1.5132306358528496, 257.1520426784504 1.1354831310353006 C263.2569919530653 0.7577356262177517, 269.3982727956739 0.47339832494450695, 275.53960155906367 0.28415113643862355 C281.68093032245343 0.09490394793274012, 287.84654402554725 0, 294.000015258789 0 C300.15348649203077 0, 306.3191001951246 0.09490394793274484, 312.46042895851434 0.28415113643862355 C318.6017577219041 0.4733983249445023, 324.7430385645127 0.7577356262177279, 330.8479878391276 1.1354831310352722 C336.9529371137425 1.5132306358528165, 343.0456482660645 1.9858791410397694, 349.0901246062037 2.5506361653438887 C355.13460094634286 3.115393189648008, 361.154697260955 3.774487571031287, 367.11484587996244 4.524025276859987 C373.0749944989699 5.273562982688688, 378.9987174060388 6.1165020958565135, 384.85101632024816 7.047862400316092 C390.70331523445753 7.97922270477567, 396.5072865059607 9.002679854150648, 402.22863936521867 10.112187103617458 C407.94999222447666 11.221694353084269, 413.6113062373875 12.421630420870917, 419.1791334757961 13.704905897116959 C424.7469607142047 14.988181373363, 430.24327484852273 16.359860760100386, 435.63560279567025 17.81183996109371 C441.0279307428178 19.263819162087035, 446.3375535576819 20.801828475896425, 451.53310115868123 22.416781103076914 C456.7286487596806 24.031733730257404, 461.8306255995764 25.730003151026793, 466.8088884016664 27.50155572417664 C471.7871512037564 29.273108297326488, 476.66134689696844 31.124935531517632, 481.4026779712211 33.046096541976 C486.1440090454738 34.96725755243437, 490.7711873684091 36.96533428397326, 495.2568748471825 39.028521786926845 C499.7425623259559 41.09170928988043, 504.1044619197305 43.228150022742135, 508.31680284386164 45.42522155969749 C512.5291437679928 47.62229309665285, 516.6085502076724 49.8886662753117, 520.5309203919692 52.21095100865897 C524.453290576266 54.533235742006234, 528.2341043083368 56.92059702693347, 531.8510239496422 59.35892995978111 C535.4679435909477 61.797262892628744, 538.9352434708989 64.29619045951438, 542.2324382398023 66.84094860574479 C545.5296330087057 69.38570675197519, 548.6697351879694 71.98633847536415, 551.6341925630629 74.62747883716358 C554.5986499381564 77.26861919896301, 557.3991618680074 79.96069157355866, 560.0191824903632 82.68779077654133 C562.639203112719 85.414889979524, 565.0890724520024 88.18777862555474, 567.3543162971976 90.99007405505961 C569.6195601423927 93.79236948456447, 571.7091183760651 96.6351310773567, 573.6106455615343 99.5015633535705 C575.5121727470034 102.3679956297843, 577.2331733433451 105.26941108806552, 578.7634794100122 108.18866771234238 C580.2937854766793 111.10792433661923, 581.6394364325868 114.05654309910624, 582.7924819615371 117.01710309923162 C583.9455274904874 119.977663099357, 584.910518136407 122.96184831489005, 585.6817525837141 125.95202771309468 C586.4529870310213 128.9422071112993, 587.0335089897361 131.95018156417723, 587.4198886453801 134.9581794884594 C587.806268301024 137.96617741274156, 587.9033402055451 142.4930426303995, 588.0000305175781 144.00001525878776 C588.0967208296112 145.50698788717602, 588.0967208296111 142.49304263040077, 588.0000305175781 144.00001525878906" stroke="none" stroke-width="0" fill="transparent"></path><path d="M588.0000305175781 144.00001525878906 C588.0000305175781 147.0139605155652, 587.8062683010243 150.0338531048353, 587.4198886453803 153.04185102911748 C587.0335089897363 156.04984895339967, 586.4529870310217 159.0578234062776, 585.6817525837146 162.04800280448225 C584.9105181364074 165.0381822026869, 583.9455274904878 168.02236741821994, 582.7924819615375 170.98292741834535 C581.6394364325872 173.94348741847077, 580.2937854766798 176.89210618095782, 578.7634794100127 179.8113628052347 C577.2331733433456 182.73061942951156, 575.512172747004 185.63203488779283, 573.610645561535 188.49846716400663 C571.7091183760659 191.36489944022043, 569.6195601423934 194.2076610330127, 567.3543162971982 197.00995646251758 C565.089072452003 199.81225189202246, 562.6392031127198 202.58514053805322, 560.019182490364 205.3122397410359 C557.3991618680082 208.0393389440186, 554.5986499381572 210.7314113186143, 551.6341925630637 213.37255168041375 C548.6697351879702 216.0136920422132, 545.5296330087067 218.61432376560217, 542.2324382398033 221.1590819118326 C538.9352434708999 223.70384005806304, 535.4679435909488 226.2027676249487, 531.8510239496433 228.64110055779636 C528.2341043083377 231.07943349064402, 524.453290576267 233.4667947755713, 520.5309203919702 235.78907950891858 C516.6085502076734 238.11136424226586, 512.5291437679937 240.37773742092472, 508.3168028438626 242.5748089578801 C504.1044619197315 244.77188049483547, 499.74256232595684 246.9083212276972, 495.25687484718344 248.9715087306508 C490.77118736841004 251.03469623360442, 486.1440090454748 253.03277296514335, 481.4026779712221 254.95393397560173 C476.6613468969694 256.8750949860601, 471.78715120375745 258.72692222025125, 466.80888840166745 260.4984747934011 C461.83062559957744 262.27002736655095, 456.72864875968156 263.9682967873204, 451.53310115868214 265.5832494145009 C446.3375535576827 267.19820204168144, 441.0279307428186 268.7362113554908, 435.63560279567105 270.1881905564842 C430.24327484852347 271.64016975747757, 424.74696071420544 273.011849144215, 419.1791334757968 274.295124620461 C413.61130623738813 275.57840009670707, 407.9499922244772 276.77833616449374, 402.22863936521924 277.8878434139606 C396.50728650596125 278.9973506634274, 390.70331523445816 280.0208078128024, 384.85101632024873 280.952168117262 C378.9987174060393 281.88352842172156, 373.0749944989703 282.7264675348894, 367.11484587996284 283.4760052407181 C361.1546972609554 284.2255429465468, 355.13460094634314 284.8846373279301, 349.090124606204 285.4493943522342 C343.0456482660648 286.01415137653834, 336.9529371137427 286.4867998817253, 330.84798783912777 286.8645473865428 C324.74303856451286 287.24229489136036, 318.60175772190416 287.52663219263366, 312.46042895851434 287.71587938113953 C306.3191001951245 287.9051265696454, 300.1534864920307 288.0000305175781, 294.0000152587889 288.0000305175781 C287.8465440255471 288.0000305175781, 281.68093032245326 287.9051265696454, 275.53960155906344 287.71587938113953 C269.3982727956736 287.52663219263366, 263.2569919530649 287.2422948913604, 257.15204267845 286.8645473865428 C251.04709340383508 286.48679988172523, 244.95438225151298 286.0141513765383, 238.9099059113738 285.44939435223415 C232.86542957123464 284.88463732793, 226.84533325662238 284.22554294654674, 220.88518463761494 283.47600524071805 C214.9250360186075 282.72646753488937, 209.0013131115385 281.88352842172145, 203.1490141973291 280.95216811726186 C197.2967152831197 280.0208078128023, 191.49274401161657 278.9973506634273, 185.77139115235855 277.88784341396047 C180.05003829310053 276.7783361644936, 174.38872428018968 275.57840009670696, 168.82089704178105 274.2951246204609 C163.25306980337243 273.01184914421486, 157.75675566905434 271.64016975747745, 152.3644277219068 270.18819055648413 C146.97209977475924 268.7362113554908, 141.66247695989514 267.1982020416814, 136.46692935889575 265.58324941450087 C131.27138175789636 263.96829678732036, 126.16940491800048 262.27002736655095, 121.19114211591048 260.49847479340104 C116.21287931382048 258.72692222025114, 111.33868362060846 256.87509498606, 106.59735254635578 254.95393397560161 C101.8560214721031 253.03277296514324, 97.22884314916782 251.0346962336043, 92.7431556703944 248.9715087306507 C88.25746819162099 246.9083212276971, 83.89556859784638 244.77188049483533, 79.68322767371527 242.57480895787995 C75.47088674958415 240.37773742092457, 71.39148030990448 238.1113642422657, 67.4691101256077 235.7890795089184 C63.54673994131091 233.46679477557112, 59.765926209240064 231.07943349064382, 56.14900656793455 228.64110055779616 C52.532086926629034 226.2027676249485, 49.06478704667801 223.70384005806284, 45.76759227777461 221.1590819118324 C42.47039750887121 218.61432376560197, 39.330295329607566 216.01369204221297, 36.36583795451412 213.37255168041352 C33.401380579420675 210.73141131861408, 30.60086864956968 208.03933894401837, 27.980848027213938 205.31223974103568 C25.360827404858195 202.585140538053, 22.910958065574828 199.8122518920222, 20.64571422037966 197.00995646251732 C18.38047037518449 194.20766103301244, 16.290912141512006 191.36489944022017, 14.389384956042932 188.49846716400634 C12.487857770573859 185.6320348877925, 10.766857174232285 182.73061942951125, 9.23655110756522 179.81136280523438 C7.706245040898153 176.8921061809575, 6.3605940849908125 173.94348741847045, 5.2075485560405355 170.98292741834504 C4.0545030270902584 168.02236741821963, 3.089512381170664 165.03818220268656, 2.3182779338635555 162.0480028044819 C1.547043486556447 159.05782340627727, 0.9665215278418107 156.04984895339933, 0.5801418721978848 153.04185102911714 C0.19376221655395892 150.03385310483495, -9.473903143468002e-15 147.01396051556483, 0 144.0000152587887 C9.473903143468002e-15 140.98607000201255, 0.19376221655398734 137.96617741274247, 0.5801418721979417 134.95817948846027 C0.9665215278418959 131.95018156417808, 1.5470434865565892 128.94220711130015, 2.318277933863726 125.95202771309549 C3.089512381170863 122.96184831489084, 4.054503027090457 119.97766309935778, 5.207548556040763 117.01710309923237 C6.360594084991068 114.05654309910696, 7.706245040898447 111.10792433661992, 9.23655110756556 108.18866771234303 C10.766857174232674 105.26941108806615, 12.487857770574331 102.36799562978491, 14.389384956043443 99.5015633535711 C16.290912141512553 96.63513107735729, 18.38047037518503 93.792369484565, 20.645714220380228 90.99007405506012 C22.910958065575425 88.18777862555524, 25.36082740485885 85.41488997952447, 27.98084802721462 82.68779077654179 C30.60086864957039 79.9606915735591, 33.40138057942139 77.2686191989634, 36.36583795451486 74.62747883716396 C39.330295329608326 71.98633847536452, 42.470397508872004 69.38570675197555, 45.767592277775435 66.84094860574511 C49.064787046678866 64.29619045951468, 52.532086926629894 61.79726289262901, 56.14900656793543 59.35892995978135 C59.765926209240966 56.92059702693369, 63.546739941311834 54.53323574200644, 67.46911012560864 52.21095100865915 C71.39148030990545 49.88866627531186, 75.47088674958512 47.62229309665299, 79.68322767371626 45.42522155969762 C83.8955685978474 43.22815002274225, 88.25746819162207 41.09170928988053, 92.74315567039551 39.02852178692693 C97.22884314916895 36.965334283973334, 101.85602147210423 34.967257552434404, 106.59735254635692 33.04609654197603 C111.3386836206096 31.124935531517654, 116.21287931382162 29.27310829732653, 121.19114211591159 27.501555724176683 C126.16940491800156 25.730003151026835, 131.2713817578974 24.031733730257436, 136.46692935889675 22.416781103076943 C141.6624769598961 20.80182847589645, 146.97209977476024 19.26381916208705, 152.36442772190776 17.811839961093725 C157.75675566905528 16.3598607601004, 163.2530698033733 14.988181373363027, 168.8208970417819 13.704905897116987 C174.3887242801905 12.421630420870947, 180.0500382931014 11.221694353084303, 185.7713911523594 10.112187103617487 C191.4927440116174 9.00267985415067, 197.29671528312048 7.979222704775675, 203.14901419732985 7.047862400316092 C209.00131311153922 6.116502095856508, 214.92503601860815 5.273562982688683, 220.88518463761557 4.524025276859987 C226.84533325662298 3.7744875710312917, 232.86542957123518 3.1153931896480316, 238.90990591137432 2.550636165343917 C244.95438225151347 1.9858791410398027, 251.04709340383553 1.5132306358528496, 257.1520426784504 1.1354831310353006 C263.2569919530653 0.7577356262177517, 269.3982727956739 0.47339832494450695, 275.53960155906367 0.28415113643862355 C281.68093032245343 0.09490394793274012, 287.84654402554725 0, 294.000015258789 0 C300.15348649203077 0, 306.3191001951246 0.09490394793274484, 312.46042895851434 0.28415113643862355 C318.6017577219041 0.4733983249445023, 324.7430385645127 0.7577356262177279, 330.8479878391276 1.1354831310352722 C336.9529371137425 1.5132306358528165, 343.0456482660645 1.9858791410397694, 349.0901246062037 2.5506361653438887 C355.13460094634286 3.115393189648008, 361.154697260955 3.774487571031287, 367.11484587996244 4.524025276859987 C373.0749944989699 5.273562982688688, 378.9987174060388 6.1165020958565135, 384.85101632024816 7.047862400316092 C390.70331523445753 7.97922270477567, 396.5072865059607 9.002679854150648, 402.22863936521867 10.112187103617458 C407.94999222447666 11.221694353084269, 413.6113062373875 12.421630420870917, 419.1791334757961 13.704905897116959 C424.7469607142047 14.988181373363, 430.24327484852273 16.359860760100386, 435.63560279567025 17.81183996109371 C441.0279307428178 19.263819162087035, 446.3375535576819 20.801828475896425, 451.53310115868123 22.416781103076914 C456.7286487596806 24.031733730257404, 461.8306255995764 25.730003151026793, 466.8088884016664 27.50155572417664 C471.7871512037564 29.273108297326488, 476.66134689696844 31.124935531517632, 481.4026779712211 33.046096541976 C486.1440090454738 34.96725755243437, 490.7711873684091 36.96533428397326, 495.2568748471825 39.028521786926845 C499.7425623259559 41.09170928988043, 504.1044619197305 43.228150022742135, 508.31680284386164 45.42522155969749 C512.5291437679928 47.62229309665285, 516.6085502076724 49.8886662753117, 520.5309203919692 52.21095100865897 C524.453290576266 54.533235742006234, 528.2341043083368 56.92059702693347, 531.8510239496422 59.35892995978111 C535.4679435909477 61.797262892628744, 538.9352434708989 64.29619045951438, 542.2324382398023 66.84094860574479 C545.5296330087057 69.38570675197519, 548.6697351879694 71.98633847536415, 551.6341925630629 74.62747883716358 C554.5986499381564 77.26861919896301, 557.3991618680074 79.96069157355866, 560.0191824903632 82.68779077654133 C562.639203112719 85.414889979524, 565.0890724520024 88.18777862555474, 567.3543162971976 90.99007405505961 C569.6195601423927 93.79236948456447, 571.7091183760651 96.6351310773567, 573.6106455615343 99.5015633535705 C575.5121727470034 102.3679956297843, 577.2331733433451 105.26941108806552, 578.7634794100122 108.18866771234238 C580.2937854766793 111.10792433661923, 581.6394364325868 114.05654309910624, 582.7924819615371 117.01710309923162 C583.9455274904874 119.977663099357, 584.910518136407 122.96184831489005, 585.6817525837141 125.95202771309468 C586.4529870310213 128.9422071112993, 587.0335089897361 131.95018156417723, 587.4198886453801 134.9581794884594 C587.806268301024 137.96617741274156, 587.9033402055451 142.4930426303995, 588.0000305175781 144.00001525878776 C588.0967208296112 145.50698788717602, 588.0967208296111 142.49304263040077, 588.0000305175781 144.00001525878906" stroke="#e9e9e9" stroke-width="1.75" fill="none"></path></g></svg>